# xmcd
#
# Track frame offsets: 
#        182
#        7305
#        21422
#        42527
#        60192
#        79477
#        103465
#        121235
#        140350
#        160670
#        180522
#        199567
#
# Disc length: 2957 seconds
#
# Revision: 0
# Processed by: cddbd v1.5PL3 Copyright (c) Steve Scherf et al.
# Submitted via: ExactAudioCopy v0.95a4
#
DISCID=a20b8b0c
DTITLE=Gladys Knight and the Pips - The Lost Live Album
DYEAR=1974
DGENRE=Blues
TTITLE0=Intro
TTITLE1=How Can You Say That Ain't Love
TTITLE2=I've Got To Use My Imagination
TTITLE3=Best Thing That Ever Happened To Me
TTITLE4=Daddy Could Swear, I Declare
TTITLE5=Try To Remember/The Way We Were
TTITLE6=On And On
TTITLE7=I Don't Want To Do Wrong
TTITLE8=Where Peaceful Waters Flow
TTITLE9=Midnight Train To Georgia
TTITLE10=Neither One of Us (Wants To Be the First to Say Goodbye)
TTITLE11=I Heard It Through the Grapevine
EXTD=
EXTT0=
EXTT1=
EXTT2=
EXTT3=
EXTT4=
EXTT5=
EXTT6=
EXTT7=
EXTT8=
EXTT9=
EXTT10=
EXTT11=
PLAYORDER=
